<svg xmlns="http://www.w3.org/2000/svg" viewBox="0 0 87.14 51.14"><defs><style>.cls-1,.cls-2{fill:#fff;}.cls-1{fill-rule:evenodd;}</style></defs><g id="Layer_2" data-name="Layer 2"><g id="Layer_3" data-name="Layer 3"><path class="cls-1" d="M.58,0S-5.28,22.87,20.37,26l-3.86-9S2.58,14.79.58,0Z"/><path class="cls-1" d="M80.76,0S86.62,22.87,61,26l3.86-9S78.75,14.79,80.76,0Z"/><path class="cls-1" d="M18.23,16.94l5.64,13.43,6.38,3.43h9.56v-.94a10.27,10.27,0,0,1-1.24-.17h0l-.21,0h0l-.2-.05H38l-.17,0-.08,0-.16,0-.09,0-.16,0-.09,0-.15-.05-.09,0-.16-.06-.08,0-.16-.07-.07,0L36.4,32l-.08,0-.15-.07-.08,0-.15-.07-.08,0-.14-.08-.08,0-.15-.08-.07,0-.15-.08-.07,0-.15-.09,0,0a9.84,9.84,0,0,1-.94-.65l0,0-.13-.11-.07-.05-.12-.1-.07-.06-.12-.1-.07-.07-.11-.1L33.26,30l-.1-.1-.08-.08-.1-.1-.07-.07-.1-.11-.08-.08-.09-.1-.08-.09-.09-.1L32.4,29l-.09-.1-.07-.09-.09-.11-.06-.09L32,28.53a.61.61,0,0,0-.07-.1l-.08-.1-.07-.11a.61.61,0,0,0-.07-.1L31.64,28l-.07-.11a.61.61,0,0,0-.07-.1l-.06-.11-.07-.11-.06-.11a1.09,1.09,0,0,1-.08-.15.16.16,0,0,1,0-.07h0L31.07,27h0L31,26.92,31,26.8a.54.54,0,0,1-.05-.11l-.06-.12a.61.61,0,0,1-.05-.12l-.06-.11a.5.5,0,0,0,0-.13s0-.07,0-.11l0-.12a1.12,1.12,0,0,0-.05-.13.42.42,0,0,0,0-.1c0-.05,0-.1,0-.14a.49.49,0,0,1,0-.11l0-.13a.56.56,0,0,1,0-.12l0-.13,0-.12,0-.13,0-.12,0-.13,0-.13,0-.14a.36.36,0,0,1,0-.11l0-.14s0-.08,0-.12l0-.14s0-.08,0-.12a.78.78,0,0,1,0-.14s0-.08,0-.12,0-.1,0-.15,0-.08,0-.12,0-.11,0-.16a.34.34,0,0,1,0-.1,1,1,0,0,1,0-.17.34.34,0,0,1,0-.1,1.09,1.09,0,0,0,0-.18v-.66c0-.08,0-.16,0-.25v0c0-.08,0-.17,0-.25v0c0-.08,0-.16,0-.24v0l0-.26v0l0-.24v0a2,2,0,0,0,0-.24v0c0-.08,0-.15,0-.23v0c0-.07,0-.14.05-.21v-.05c0-.07,0-.14,0-.21v-.06l.06-.19v-.06a1.72,1.72,0,0,1,.07-.21v-.06l.06-.18,0-.06a1.34,1.34,0,0,1,.07-.18l0-.09.06-.15,0-.09.06-.15a1.17,1.17,0,0,0,.05-.11l.06-.13,0-.1.06-.13.06-.13.05-.09.07-.13.06-.12s.05-.08.07-.13l0-.08a.64.64,0,0,0,.08-.14l.06-.08.09-.16,0-.06.1-.15,0,0,.1-.15.06-.09h0l.1-.15,0-.05.1-.14L18.23,16.94Zm13.43-.75.1-.15-.1.15Z"/><path class="cls-1" d="M63.1,16.94,57.46,30.37,51.08,33.8H41.52v-.94a10,10,0,0,0,1.24-.17h.05l.21,0h0l.19-.05h.06l.18,0,.08,0,.16,0,.08,0,.16,0,.09,0,.16-.05.08,0,.16-.06.08,0,.16-.07.07,0,.16-.06L45,32l.15-.07.08,0,.15-.07.08,0,.15-.08.07,0,.15-.08.07,0,.15-.08.07,0,.15-.09,0,0a8.72,8.72,0,0,0,.94-.65l0,0a.69.69,0,0,0,.13-.11.18.18,0,0,0,.07-.05l.12-.1.07-.06.12-.1.07-.07L48,30l.08-.07.1-.1.08-.08.1-.1.08-.07.09-.11.08-.08.09-.1.08-.09.09-.1.07-.09.09-.1.07-.09.09-.11.07-.09a.76.76,0,0,1,.08-.11l.07-.1.08-.1.07-.11.07-.1.07-.11.07-.11.07-.1.06-.11.07-.11.06-.11.09-.15,0-.07h0l.11-.22h0l.06-.11.06-.12a.54.54,0,0,1,0-.11l.06-.12a.61.61,0,0,1,0-.12.54.54,0,0,1,.05-.11.5.5,0,0,1,0-.13.54.54,0,0,1,0-.11s0-.08,0-.12,0-.08.05-.13a.42.42,0,0,1,0-.1.58.58,0,0,1,0-.14l0-.11s0-.09.05-.13l0-.12,0-.13,0-.12a.65.65,0,0,0,0-.13l0-.12,0-.13,0-.13,0-.14,0-.11a.59.59,0,0,1,0-.14.5.5,0,0,0,0-.12l0-.14a.5.5,0,0,1,0-.12.59.59,0,0,1,0-.14s0-.08,0-.12,0-.1,0-.15,0-.08,0-.12,0-.11,0-.16v-.1c0-.06,0-.11,0-.17v-.1c0-.06,0-.12,0-.18v-.09c0-.09,0-.18,0-.27s0-.18,0-.27v0a2.18,2.18,0,0,0,0-.25v0a2.11,2.11,0,0,0,0-.25v0a1.94,1.94,0,0,0,0-.24v0l0-.26v0a2,2,0,0,0,0-.24v0c0-.08,0-.16,0-.24v0a1.85,1.85,0,0,0,0-.23v0c0-.07,0-.14,0-.21l0-.05a1.6,1.6,0,0,0,0-.21v-.06L51,19.2v-.06L51,18.93l0-.06-.06-.18,0-.06-.06-.18,0-.09-.06-.15,0-.09L50.62,18a1.17,1.17,0,0,1,0-.11s0-.09,0-.13a.47.47,0,0,1-.05-.1l-.06-.13-.06-.13-.05-.09a.83.83,0,0,0-.07-.13L50.17,17l-.07-.13,0-.08s-.05-.09-.08-.14l0-.08-.1-.16,0-.06-.1-.15,0,0-.1-.15L49.51,16h0l-.1-.15,0-.05-.1-.14L63.1,16.94Zm-13.43-.75-.1-.15.1.15Z"/><path class="cls-1" d="M40.67,13.05a9.07,9.07,0,1,1-9.07,9.07,9.07,9.07,0,0,1,9.07-9.07Zm0,1.91a7.16,7.16,0,1,1-7.16,7.16A7.16,7.16,0,0,1,40.67,15Z"/><path class="cls-1" d="M40.67,18.19a3.93,3.93,0,1,1-3.93,3.93,3.93,3.93,0,0,1,3.93-3.93Z"/><path class="cls-2" d="M30.44,40.32a1.74,1.74,0,0,1-.52,1.27,1.68,1.68,0,0,1-1.25.52H26.9V34.63h1.77a1.68,1.68,0,0,1,1.25.52,1.71,1.71,0,0,1,.52,1.26v3.91ZM28,41h.68a.62.62,0,0,0,.46-.19.65.65,0,0,0,.18-.46V36.43a.62.62,0,0,0-.19-.46.58.58,0,0,0-.45-.19H28V41Z"/><polygon class="cls-2" points="31.43 42.11 31.43 34.63 34.64 34.63 34.64 35.76 32.55 35.76 32.55 37.8 34.08 37.8 34.08 38.94 32.55 38.94 32.55 40.98 34.64 40.98 34.64 42.11 31.43 42.11 31.43 42.11"/><path class="cls-2" d="M39.14,40.25a2.09,2.09,0,0,1-.4,1.34,1.46,1.46,0,0,1-.78.53,2.33,2.33,0,0,1-.62.08,1.76,1.76,0,0,1-1.1-.33,1.85,1.85,0,0,1-.58-.73,3.11,3.11,0,0,1-.25-1.06L36.49,40a1.64,1.64,0,0,0,.34.94.57.57,0,0,0,.47.21.72.72,0,0,0,.59-.36,1,1,0,0,0,.11-.5,1.36,1.36,0,0,0-.42-.92l-1-1a4.39,4.39,0,0,1-.8-1,2.39,2.39,0,0,1-.25-1.05,1.83,1.83,0,0,1,.69-1.55,1.7,1.7,0,0,1,1.05-.32,1.91,1.91,0,0,1,1,.27,1.62,1.62,0,0,1,.54.59,2.11,2.11,0,0,1,.25.86l-1.08.2a1.35,1.35,0,0,0-.27-.72.55.55,0,0,0-.45-.18.52.52,0,0,0-.47.28,1,1,0,0,0-.13.54,1.68,1.68,0,0,0,.44,1,4.19,4.19,0,0,0,.51.47l.52.46a4.12,4.12,0,0,1,.64.83,2.23,2.23,0,0,1,.17.35,1.87,1.87,0,0,1,.17.71Z"/><polygon class="cls-2" points="41.2 42.11 40.08 42.11 40.08 34.64 41.2 34.64 41.2 42.11 41.2 42.11"/><path class="cls-2" d="M45.06,42.2a1.68,1.68,0,0,1-1.26-.52,1.72,1.72,0,0,1-.53-1.26V36.34a1.79,1.79,0,1,1,3.57,0v.86H45.67v-.88a.62.62,0,0,0-.19-.46.6.6,0,0,0-.45-.19.65.65,0,0,0-.65.65v4.09a.58.58,0,0,0,.19.45.62.62,0,0,0,.46.19.6.6,0,0,0,.45-.19.58.58,0,0,0,.19-.45V38.94h-.62V37.81h1.79v2.61a1.68,1.68,0,0,1-.52,1.26,1.71,1.71,0,0,1-1.26.52Z"/><polygon class="cls-2" points="50.16 34.63 51.66 39.65 51.66 34.63 52.78 34.63 52.78 42.11 51.57 42.11 50.02 37.32 50.02 42.11 48.9 42.11 48.9 34.63 50.16 34.63 50.16 34.63"/><path class="cls-2" d="M30.74,51.05V43.57h1.69a2.19,2.19,0,0,1,1.2.35,1.63,1.63,0,0,1,.66.93,2.62,2.62,0,0,1,.1.79A1.81,1.81,0,0,1,34,46.85a1.28,1.28,0,0,1-.4.29,1.29,1.29,0,0,1,.64.57,2.13,2.13,0,0,1,.26.74,3.77,3.77,0,0,1,0,.51,2.49,2.49,0,0,1-.27,1.21,1.6,1.6,0,0,1-.59.62,1.68,1.68,0,0,1-.85.26ZM32,49.94h.47a.8.8,0,0,0,.79-.59,1.37,1.37,0,0,0,.07-.47,1.48,1.48,0,0,0-.23-.91.77.77,0,0,0-.63-.26H32v2.23Zm0-3.31h.47a.68.68,0,0,0,.7-.52,1.53,1.53,0,0,0,.06-.47,1,1,0,0,0-.22-.71.74.74,0,0,0-.54-.22H32v1.92Z"/><path class="cls-2" d="M37.29,51.14a1.76,1.76,0,0,1-1.78-1.78V43.58h1.1v5.77a.62.62,0,0,0,.19.46.63.63,0,0,0,.46.18.63.63,0,0,0,.45-.18.62.62,0,0,0,.19-.46V43.58h1.17v5.78a1.68,1.68,0,0,1-.52,1.26,1.71,1.71,0,0,1-1.26.52Z"/><polygon class="cls-2" points="43.15 49.55 40.08 49.55 40.08 42.08 41.21 42.08 41.21 48.43 43.15 48.43 43.15 49.55 43.15 49.55"/><polygon class="cls-2" points="47 51.05 43.93 51.05 43.93 43.58 45.05 43.58 45.05 49.93 47 49.93 47 51.05 47 51.05"/><polygon class="cls-2" points="51.14 43.58 51.14 44.71 49.07 49.93 51.14 49.93 51.14 51.05 47.85 51.05 47.85 49.92 49.93 44.71 47.85 44.71 47.85 43.58 51.14 43.58 51.14 43.58"/><path class="cls-2" d="M85.08,4.25a2.06,2.06,0,1,1,2.06-2.06A2.06,2.06,0,0,1,85.08,4.25Zm0-3.93A1.88,1.88,0,1,0,87,2.19,1.88,1.88,0,0,0,85.08.32Z"/><path class="cls-2" d="M84.46,3V1.41h.67a1.14,1.14,0,0,1,.37,0,.43.43,0,0,1,.18.15.52.52,0,0,1,.07.25.42.42,0,0,1-.11.29.48.48,0,0,1-.31.15.59.59,0,0,1,.17.13,1,1,0,0,1,.18.25l.19.31h-.38l-.22-.34a1.3,1.3,0,0,0-.17-.23.17.17,0,0,0-.1-.07.51.51,0,0,0-.16,0h-.06V3Zm.32-.91H85a.91.91,0,0,0,.29,0A.15.15,0,0,0,85.39,2a.21.21,0,0,0,0-.12.18.18,0,0,0,0-.13.23.23,0,0,0-.12-.06h-.48v.4Z"/></g></g></svg>