<svg xmlns="http://www.w3.org/2000/svg" viewBox="0 0 337.7 171.57"><defs><style>.cls-1{fill:#0f152a;}</style></defs><g id="Layer_2" data-name="Layer 2"><g id="Layer_1-2" data-name="Layer 1"><path class="cls-1" d="M0,86.82V1.49H68.16V16.67H18.66v19H62.44v15H18.66V71.52H68.91v15.3Z"/><path class="cls-1" d="M75.5,86.82l30.72-44.9L78.49,1.49h22.63l17.67,27h.62L137,1.49h21.27L130.35,41.92l30.73,44.9H138.44L117.92,55.23h-.63L96.89,86.82Z"/><path class="cls-1" d="M170.53,171.57V1.49h44.4q9.21,0,15.37,3.42a22.65,22.65,0,0,1,9.32,9.58,31.5,31.5,0,0,1,3.18,14.62,31.27,31.27,0,0,1-3.3,14.74,23.31,23.31,0,0,1-9.64,9.76q-6.35,3.48-15.55,3.48H189.06V171.57ZM189.06,41.92h22.77q5.83,0,9-3.36T224,29.23a15.29,15.29,0,0,0-1.36-6.84,9.79,9.79,0,0,0-4.05-4.23,13.82,13.82,0,0,0-6.77-1.49H189.06Z"/><path class="cls-1" d="M293.92,88.31q-13.56,0-23.39-4.85a33.47,33.47,0,0,1-15-14.67q-5.22-9.83-5.22-24.63,0-15.06,5.22-24.82a33.21,33.21,0,0,1,15-14.55Q280.36,0,293.92,0q13.8,0,23.57,4.79a33.22,33.22,0,0,1,15,14.55q5.22,9.77,5.22,24.82,0,14.81-5.22,24.63a33.48,33.48,0,0,1-15,14.67Q307.73,88.32,293.92,88.31Zm0-15.17a30.2,30.2,0,0,0,10.7-1.74,19.34,19.34,0,0,0,7.71-5.23,23.17,23.17,0,0,0,4.72-8.52,37.53,37.53,0,0,0,1.62-11.5V42.29a38.63,38.63,0,0,0-1.62-11.69,22.54,22.54,0,0,0-4.72-8.52,19.71,19.71,0,0,0-7.71-5.16,30.2,30.2,0,0,0-10.7-1.74,29.73,29.73,0,0,0-10.57,1.74,19.68,19.68,0,0,0-7.72,5.16A22.05,22.05,0,0,0,271,30.6a40,40,0,0,0-1.56,11.69v3.86A38.87,38.87,0,0,0,271,57.65a22.65,22.65,0,0,0,4.66,8.52,19.3,19.3,0,0,0,7.72,5.23A29.73,29.73,0,0,0,293.92,73.14Z"/></g></g></svg>